{"version":2,"width":100,"height":26,"timestamp":1689335924,"env":{"SHELL":"","TERM":"xterm"}}
[ 0.00000, "o", "" ]
[ 0.09120, "o", "\u001b[19491001\u001b[1;35m> \u001b[20210325\u001b[0m" ]
[ 0.99672, "o", "# C" ]
[ 1.04852, "o", "o" ]
[ 1.10071, "o", "n" ]
[ 1.15321, "o", "v" ]
[ 1.20533, "o", "e" ]
[ 1.25751, "o", "r" ]
[ 1.30924, "o", "t" ]
[ 1.36111, "o", " " ]
[ 1.41284, "o", "v" ]
[ 1.46511, "o", "i" ]
[ 1.51769, "o", "d" ]
[ 1.57001, "o", "e" ]
[ 1.62262, "o", "o" ]
[ 1.67470, "o", " " ]
[ 1.72681, "o", "f" ]
[ 1.77869, "o", "o" ]
[ 1.83046, "o", "r" ]
[ 1.88200, "o", "m" ]
[ 1.93449, "o", "a" ]
[ 1.98690, "o", "t" ]
[ 2.03940, "o", "s" ]
[ 2.09216, "o", "\r\n\u001b[?2004l\r\u001b[?2004h\r\n\u001b[19491001\u001b[1;35m> \u001b[20210325\u001b[0m" ]
[ 3.59613, "o", "x" ]
[ 3.64784, "o", " " ]
[ 3.70069, "o", "f" ]
[ 3.75321, "o", "f" ]
[ 3.80534, "o", "m" ]
[ 3.85722, "o", "p" ]
[ 3.90901, "o", "e" ]
[ 3.96179, "o", "g" ]
[ 4.01352, "o", " " ]
[ 4.06566, "o", "-" ]
[ 4.11795, "o", "i" ]
[ 4.17017, "o", " " ]
[ 4.22279, "o", "t" ]
[ 4.27503, "o", "e" ]
[ 4.32709, "o", "s" ]
[ 4.37890, "o", "t" ]
[ 4.43117, "o", "." ]
[ 4.48306, "o", "m" ]
[ 4.53529, "o", "p" ]
[ 4.58730, "o", "4" ]
[ 4.63961, "o", " " ]
[ 4.69198, "o", "t" ]
[ 4.74411, "o", "e" ]
[ 4.79648, "o", "s" ]
[ 4.84834, "o", "t" ]
[ 4.90024, "o", "." ]
[ 4.95183, "o", "a" ]
[ 5.00380, "o", "v" ]
[ 5.05582, "o", "i" ]
[ 6.10978, "o", "\r\n\u001b[?2004l\r" ]
[ 6.19087, "o", "ffmpeg version 6.0-static https://johnvansickle.com/ffmpeg/  Copyright (c) 2000-2023 the FFmpeg developers\r\n  built with gcc 8 (Debian 8.3.0-6)\r\n  configuration: --enable-gpl --enable-version3 --enable-static --disable-debug --disable-ffplay --disable-indev=sndio --disable-outdev=sndio --cc=gcc --enable-fontconfig --enable-frei0r --enable-gnutls --enable-gmp --enable-libgme --enable-gray --enable-libaom --enable-libfribidi --enable-libass --enable-libvmaf --enable-libfreetype --enable-libmp3lame --enable-libopencore-amrnb --enable-libopencore-amrwb --enable-libopenjpeg --enable-librubberband --enable-libsoxr --enable-libspeex --enable-libsrt --enable-libvorbis --enable-libopus --enable-libtheora --enable-libvidstab --enable-libvo-amrwbenc --enable-libvpx --enable-libwebp --enable-libx264 --enable-libx265 --enable-libxml2 --enable-libdav1d --enable-libxvid --enable-libzvbi --enable-libzimg\r\n  libavutil      58.  2.100 / 58.  2.100\r\n  libavcodec     60.  3.100 / 60.  3.100\r\n  libavformat    60.  3.100 / 60.  3.100\r\n  libavdevice    60.  1.100 / 60.  1.100\r\n  libavfilter     9.  3.100 /  9.  3.100\r\n  libswscale      7.  1.100 /  7.  1.100\r\n  libswresample   4. 10.100 /  4. 10.100\r\n  libpostproc    57.  1.100 / 57.  1.100\r\n" ]
[ 6.19652, "o", "Input #0, mov,mp4,m4a,3gp,3g2,mj2, from 'test.mp4':\r\n  Metadata:\r\n    major_brand     : isom\r\n    minor_version   : 512\r\n    compatible_brands: isomiso2avc1mp41\r\n    creation_time   : 1970-01-01T00:00:00.000000Z\r\n    title           : Sintel Trailer\r\n" ]
[ 6.19654, "o", "    artist          : Durian Open Movie Team\r\n    encoder         : Lavf52.62.0\r\n    copyright       : " ]
[ 6.19657, "o", "(c) copyright Blender Foundation | durian.blender.org\r\n    description     : Trailer for the Sintel open movie project\r\n  Duration: 00:00:52.21, start: 0.000000, bitrate: 669 kb/s\r\n" ]
[ 6.19663, "o", "  Stream #0:0[0x1](und): Video: h264 (High) (avc1 / 0x31637661), yuv420p(progressive), 854x480, 537 kb/s, 24 fps, 24 tbr, 24 tbn" ]
[ 6.19664, "o", " (default)\r\n    Metadata:\r\n      creation_time   : 1970-01-01T00:00:00.000000Z\r\n" ]
[ 6.19671, "o", "      handler_name    : VideoHandler\r\n      vendor_id       : [0][0][0][0]\r\n  Stream #0:1[0x2](und): Audio: aac (LC) (mp4a / 0x6134706D), 48000 Hz, stereo, fltp, 126 kb/s" ]
[ 6.19672, "o", " (default)\r\n    Metadata:\r\n" ]
[ 6.19674, "o", "      creation_time   : " ]
[ 6.19675, "o", "1970-01-01T00:00:00.000000Z\r\n      handler_name    : SoundHandler\r\n      vendor_id       : " ]
[ 6.19676, "o", "[0][0][0][0]\r\n" ]
[ 6.20052, "o", "Stream mapping:\r\n  Stream #0:0 -> #0:0 (h264 (native) -> mpeg4 (native))\r\n  Stream #0:1 -> #0:1 (aac (native) -> mp3 (libmp3lame))\r\nPress [q] to stop, [?] for help\r\n" ]
[ 6.21781, "o", "Output #0, avi, to 'test.avi':\r\n  Metadata:\r\n    major_brand     : isom\r\n    minor_version   : 512\r\n    compatible_brands: isomiso2avc1mp41\r\n    description     : Trailer for the Sintel open movie project\r\n    INAM            : Sintel Trailer\r\n    IART            : Durian Open Movie Team\r\n    ICOP            : (c) copyright Blender Foundation | durian.blender.org\r\n    ISFT            : Lavf60.3.100\r\n" ]
[ 6.21782, "o", "  Stream #0:0(und): Video: mpeg4 (FMP4 / 0x34504D46), yuv420p(progressive), 854x480, q=2-31, 200 kb/s, 24 fps, 24 tbn" ]
[ 6.21787, "o", " (default)\r\n    Metadata:\r\n      creation_time   : 1970-01-01T00:00:00.000000Z\r\n      handler_name    : VideoHandler\r\n      vendor_id       : [0][0][0][0]\r\n      encoder         : Lavc60.3.100 mpeg4\r\n    Side data:\r\n      cpb: bitrate max/min/avg: 0/0/200000 buffer size: 0 vbv_delay: N/A" ]
[ 6.21788, "o", "\r\n" ]
[ 6.21801, "o", "  Stream #0:1(und): Audio: mp3 (U[0][0][0] / 0x0055), 48000 Hz, stereo, fltp (default)\r\n    Metadata:\r\n      creation_time   : 1970-01-01T00:00:00.000000Z\r\n      handler_name    : SoundHandler\r\n      vendor_id       : [0][0][0][0]\r\n      encoder         : Lavc60.3.100 libmp3lame\r\n" ]
[ 6.22323, "o", "frame=    0 fps=0.0 q=1.6 size=      10kB time=00:00:00.23 bitrate= 337.0kbits/s speed=20.4x    \r" ]
[ 6.71304, "o", "frame=  264 fps=0.0 q=31.0 size=     512kB time=00:00:11.23 bitrate= 373.5kbits/s speed=21.9x    \r" ]
[ 7.21334, "o", "frame=  549 fps=542 q=31.0 size=    1280kB time=00:00:23.06 bitrate= 454.7kbits/s speed=22.8x    \r" ]
[ 7.71356, "o", "frame=  825 fps=546 q=31.0 size=    2304kB time=00:00:34.58 bitrate= 545.8kbits/s speed=22.9x    \r" ]
[ 8.21336, "o", "frame= 1103 fps=548 q=31.0 size=    2816kB time=00:00:46.17 bitrate= 499.6kbits/s speed=22.9x    \r" ]
[ 8.43304, "o", "frame= 1253 fps=561 q=31.0 Lsize=    3239kB time=00:00:52.16 bitrate= 508.7kbits/s speed=23.4x    \r\nvideo:2337kB audio:812kB subtitle:0kB other streams:0kB global headers:0kB muxing overhead: 2.878306%\r\n" ]
[ 8.43761, "o", "\u001b[?2004h\r\n\u001b[19491001\u001b[1;35m> \u001b[20210325\u001b[0m" ]
[ 12.61446, "o", "# E" ]
[ 12.66657, "o", "x" ]
[ 12.71872, "o", "t" ]
[ 12.77062, "o", "r" ]
[ 12.82295, "o", "a" ]
[ 12.87479, "o", "c" ]
[ 12.92725, "o", "t" ]
[ 12.97898, "o", " " ]
[ 13.03087, "o", "a" ]
[ 13.08315, "o", "u" ]
[ 13.13486, "o", "d" ]
[ 13.18677, "o", "i" ]
[ 13.23858, "o", "o" ]
[ 13.29048, "o", " " ]
[ 13.34332, "o", "f" ]
[ 13.39545, "o", "r" ]
[ 13.44781, "o", "o" ]
[ 13.50003, "o", "m" ]
[ 13.55237, "o", " " ]
[ 13.60383, "o", "v" ]
[ 13.65552, "o", "i" ]
[ 13.70767, "o", "d" ]
[ 13.75972, "o", "e" ]
[ 13.81141, "o", "o" ]
[ 13.86379, "o", "\r\n\u001b[?2004l\r\u001b[?2004h\r\n\u001b[19491001\u001b[1;35m> \u001b[20210325\u001b[0m" ]
[ 15.36751, "o", "x" ]
[ 15.41983, "o", " " ]
[ 15.47147, "o", "f" ]
[ 15.52346, "o", "f" ]
[ 15.57566, "o", "m" ]
[ 15.62776, "o", "p" ]
[ 15.67971, "o", "e" ]
[ 15.73199, "o", "g" ]
[ 15.78446, "o", " " ]
[ 15.83627, "o", "-" ]
[ 15.88892, "o", "i" ]
[ 15.94086, "o", " " ]
[ 15.99275, "o", "t" ]
[ 16.04462, "o", "e" ]
[ 16.09645, "o", "s" ]
[ 16.14859, "o", "t" ]
[ 16.20095, "o", "." ]
[ 16.25257, "o", "m" ]
[ 16.30430, "o", "p" ]
[ 16.35661, "o", "4" ]
[ 16.40850, "o", " " ]
[ 16.46034, "o", "-" ]
[ 16.51235, "o", "a" ]
[ 16.56435, "o", "c" ]
[ 16.61673, "o", "o" ]
[ 16.66856, "o", "d" ]
[ 16.72073, "o", "e" ]
[ 16.77252, "o", "c" ]
[ 16.82468, "o", " " ]
[ 16.87645, "o", "l" ]
[ 16.92851, "o", "i" ]
[ 16.98062, "o", "b" ]
[ 17.03243, "o", "m" ]
[ 17.08466, "o", "p" ]
[ 17.13659, "o", "3" ]
[ 17.18879, "o", "l" ]
[ 17.24101, "o", "a" ]
[ 17.29327, "o", "m" ]
[ 17.34534, "o", "e" ]
[ 17.39748, "o", " " ]
[ 17.44940, "o", "-" ]
[ 17.50177, "o", "v" ]
[ 17.55373, "o", "n" ]
[ 17.60544, "o", " " ]
[ 17.65740, "o", "t" ]
[ 17.70947, "o", "e" ]
[ 17.76160, "o", "s" ]
[ 17.81388, "o", "t" ]
[ 17.86584, "o", "." ]
[ 17.91752, "o", "m" ]
[ 17.96948, "o", "p" ]
[ 18.02137, "o", "3" ]
[ 19.57536, "o", "\r\n\u001b[?2004l\r" ]
[ 19.57802, "o", "ffmpeg version 6.0-static https://johnvansickle.com/ffmpeg/  Copyright (c) 2000-2023 the FFmpeg developers\r\n  built with gcc 8 (Debian 8.3.0-6)\r\n  configuration: --enable-gpl --enable-version3 --enable-static --disable-debug --disable-ffplay --disable-indev=sndio --disable-outdev=sndio --cc=gcc --enable-fontconfig --enable-frei0r --enable-gnutls --enable-gmp --enable-libgme --enable-gray --enable-libaom --enable-libfribidi --enable-libass --enable-libvmaf --enable-libfreetype --enable-libmp3lame --enable-libopencore-amrnb --enable-libopencore-amrwb --enable-libopenjpeg --enable-librubberband --enable-libsoxr --enable-libspeex --enable-libsrt --enable-libvorbis --enable-libopus --enable-libtheora --enable-libvidstab --enable-libvo-amrwbenc --enable-libvpx --enable-libwebp --enable-libx264 --enable-libx265 --enable-libxml2 --enable-libdav1d --enable-libxvid --enable-libzvbi --enable-libzimg\r\n  libavutil      58.  2.100 / 58.  2.100\r\n  libavcodec     60.  3.100 / 60.  3.100\r\n  libavformat    60.  3.100 / 60.  3.100\r\n  libavdevice    60.  1.100 / 60.  1.100\r\n  libavfilter     9.  3.100 /  9.  3.100\r\n  libswscale      7.  1.100 /  7.  1.100\r\n  libswresample   4. 10.100 /  4. 10.100\r\n  libpostproc    57.  1.100 / 57.  1.100\r\n" ]
[ 19.58224, "o", "Input #0, mov,mp4,m4a,3gp,3g2,mj2, from 'test.mp4':\r\n  Metadata:\r\n    major_brand     : isom\r\n    minor_version   : 512\r\n    compatible_brands: isomiso2avc1mp41\r\n    creation_time   : 1970-01-01T00:00:00.000000Z\r\n    title           : Sintel Trailer\r\n    artist          : Durian Open Movie Team\r\n    encoder         : Lavf52.62.0\r\n    copyright       : (c) copyright Blender Foundation | durian.blender.org\r\n    description     : " ]
[ 19.58227, "o", "Trailer for the Sintel open movie project\r\n  Duration: 00:00:52.21, start: 0.000000, bitrate: 669 kb/s\r\n  Stream #0:0[0x1](und)" ]
[ 19.58228, "o", ": Video: h264 (High) (avc1 / 0x31637661), yuv420p(progressive), 854x480, 537 kb/s, 24 fps, 24 tbr, 24 tbn (default)\r\n    Metadata:\r\n      creation_time   : 1970-01-01T00:00:00.000000Z\r\n      handler_name    : VideoHandler\r\n      vendor_id       : [0][0][0][0]\r\n  Stream #0:1[0x2]" ]
[ 19.58232, "o", "(und): Audio: aac (LC) (mp4a / 0x6134706D), 48000 Hz, stereo, fltp, 126 kb/s (default)\r\n    Metadata:\r\n      creation_time   : 1970-01-01T00:00:00.000000Z\r\n      handler_name    : SoundHandler\r\n      vendor_id       : [0][0][0][0]\r\n" ]
[ 19.58292, "o", "Stream mapping:\r\n  Stream #0:1 -> #0:0 (aac (native) -> mp3 (libmp3lame))\r\nPress [q] to stop, [?] for help\r\n" ]
[ 19.58620, "o", "Output #0, mp3, to 'test.mp3':\r\n  Metadata:\r\n    major_brand     : isom\r\n    minor_version   : 512" ]
[ 19.58623, "o", "\r\n    compatible_brands: isomiso2avc1mp41\r\n    description     : Trailer for the Sintel open movie project\r\n    TIT2            : Sintel Trailer\r\n    TPE1            : Durian Open Movie Team\r\n    TCOP            : (c) copyright Blender Foundation | durian.blender.org\r\n    TSSE            : " ]
[ 19.58624, "o", "Lavf60.3.100\r\n" ]
[ 19.58624, "o", "  Stream #0:0(und): Audio: mp3, 48000 Hz, stereo, fltp (default)\r\n    Metadata:\r\n      creation_time   : 1970-01-01T00:00:00.000000Z\r\n      handler_name    : SoundHandler\r\n" ]
[ 19.58626, "o", "      vendor_id       : [0][0][0][0]" ]
[ 19.58628, "o", "\r\n      encoder         : Lavc60.3.100 libmp3lame" ]
[ 19.58629, "o", "\r\n" ]
[ 19.58637, "o", "size=       0kB time=-577014:32:22.77 bitrate=  -0.0kbits/s speed=N/A    \r" ]
[ 20.08413, "o", "size=     256kB time=00:00:24.21 bitrate=  86.6kbits/s speed=48.4x    \r" ]
[ 20.58413, "o", "size=     512kB time=00:00:48.38 bitrate=  86.7kbits/s speed=48.3x    \r" ]
[ 20.63624, "o", "size=     812kB time=00:00:51.93 bitrate= 128.1kbits/s speed=49.3x    \r\nvideo:0kB audio:812kB subtitle:0kB other streams:0kB global headers:0kB muxing overhead: 0.063631%\r\n" ]
[ 20.63787, "o", "\u001b[?2004h\r\n\u001b[19491001\u001b[1;35m> \u001b[20210325\u001b[0m" ]
[ 26.07926, "o", "# V" ]
[ 26.13127, "o", "i" ]
[ 26.18344, "o", "e" ]
[ 26.23576, "o", "w" ]
[ 26.28813, "o", " " ]
[ 26.34001, "o", "a" ]
[ 26.39201, "o", "u" ]
[ 26.44389, "o", "d" ]
[ 26.49607, "o", "i" ]
[ 26.54859, "o", "o" ]
[ 26.60062, "o", " " ]
[ 26.65299, "o", "f" ]
[ 26.70486, "o", "i" ]
[ 26.75728, "o", "l" ]
[ 26.80976, "o", "e" ]
[ 26.86163, "o", " " ]
[ 26.91362, "o", "i" ]
[ 26.96597, "o", "n" ]
[ 27.01816, "o", "f" ]
[ 27.07002, "o", "o" ]
[ 27.12164, "o", "r" ]
[ 27.17369, "o", "m" ]
[ 27.22596, "o", "a" ]
[ 27.27775, "o", "t" ]
[ 27.33039, "o", "i" ]
[ 27.38285, "o", "o" ]
[ 27.43532, "o", "n" ]
[ 27.48713, "o", "\r\n\u001b[?2004l\r\u001b[?2004h\r\n\u001b[19491001\u001b[1;35m> \u001b[20210325\u001b[0m" ]
[ 28.99152, "o", "x" ]
[ 29.04365, "o", " " ]
[ 29.09562, "o", "f" ]
[ 29.14725, "o", "f" ]
[ 29.19917, "o", "m" ]
[ 29.25148, "o", "p" ]
[ 29.30343, "o", "e" ]
[ 29.35546, "o", "g" ]
[ 29.40768, "o", " " ]
[ 29.46033, "o", "-" ]
[ 29.51237, "o", "i" ]
[ 29.56402, "o", " " ]
[ 29.61615, "o", "t" ]
[ 29.66818, "o", "e" ]
[ 29.71976, "o", "s" ]
[ 29.77172, "o", "t" ]
[ 29.82368, "o", "." ]
[ 29.87583, "o", "m" ]
[ 29.92818, "o", "p" ]
[ 29.98070, "o", "3" ]
[ 30.03251, "o", " " ]
[ 30.08489, "o", "-" ]
[ 30.13684, "o", "h" ]
[ 30.18904, "o", "i" ]
[ 30.24087, "o", "d" ]
[ 30.29352, "o", "e" ]
[ 30.34523, "o", "_" ]
[ 30.39715, "o", "b" ]
[ 30.44896, "o", "a" ]
[ 30.50070, "o", "n" ]
[ 30.55276, "o", "n" ]
[ 30.60482, "o", "e" ]
[ 30.65769, "o", "r" ]
[ 32.21261, "o", "\r\n\u001b[?2004l\r" ]
[ 32.21662, "o", "Input #0, mp3, from 'test.mp3':\r\n  Metadata:\r\n    major_brand     : isom\r\n    minor_version   : 512\r\n    compatible_brands: isomiso2avc1mp41\r\n    description     : Trailer for the Sintel open movie project\r\n    title           : Sintel Trailer\r\n    artist          : Durian Open Movie Team\r\n    copyright       : (c) copyright Blender Foundation | durian.blender.org\r\n    encoder         : Lavf60.3.100\r\n  Duration: 00:00:51.96, start: 0.023021, bitrate: 128 kb/s\r\n  Stream #0:0: Audio: mp3, 48000 Hz, stereo, fltp, 128 kb/s\r\n    Metadata:\r\n      encoder         : " ]
[ 32.21663, "o", "Lavc60.3.\r\n\u001b[4;31mAt least one output file must be specified\r\n\u001b[0m" ]
[ 32.21740, "o", "\u001b[?2004h\r\n\u001b[19491001\u001b[1;35m> \u001b[20210325\u001b[0m" ]
[ 38.71701, "o", "# M" ]
[ 38.76950, "o", "o" ]
[ 38.82203, "o", "d" ]
[ 38.87388, "o", "i" ]
[ 38.92580, "o", "f" ]
[ 38.97764, "o", "y" ]
[ 39.02991, "o", " " ]
[ 39.08233, "o", "t" ]
[ 39.13458, "o", "h" ]
[ 39.18654, "o", "e" ]
[ 39.23879, "o", " " ]
[ 39.29072, "o", "e" ]
[ 39.34258, "o", "n" ]
[ 39.39444, "o", "c" ]
[ 39.44629, "o", "o" ]
[ 39.49804, "o", "d" ]
[ 39.55015, "o", "i" ]
[ 39.60229, "o", "n" ]
[ 39.65459, "o", "g" ]
[ 39.70633, "o", " " ]
[ 39.75864, "o", "f" ]
[ 39.81037, "o", "o" ]
[ 39.86259, "o", "r" ]
[ 39.91424, "o", "m" ]
[ 39.96645, "o", "a" ]
[ 40.01901, "o", "t" ]
[ 40.07108, "o", " " ]
[ 40.12345, "o", "o" ]
[ 40.17543, "o", "f" ]
[ 40.22746, "o", " " ]
[ 40.27920, "o", "t" ]
[ 40.33138, "o", "h" ]
[ 40.38348, "o", "e" ]
[ 40.43595, "o", " " ]
[ 40.48859, "o", "v" ]
[ 40.54090, "o", "i" ]
[ 40.59307, "o", "d" ]
[ 40.64494, "o", "e" ]
[ 40.69671, "o", "o" ]
[ 40.74850, "o", "\r\n\u001b[?2004l\r" ]
[ 40.74858, "o", "\u001b[?2004h\r\n\u001b[19491001\u001b[1;35m> \u001b[20210325\u001b[0m" ]
[ 42.25303, "o", "x" ]
[ 42.30515, "o", " " ]
[ 42.35760, "o", "f" ]
[ 42.40917, "o", "f" ]
[ 42.46164, "o", "m" ]
[ 42.51331, "o", "p" ]
[ 42.56559, "o", "e" ]
[ 42.61785, "o", "g" ]
[ 42.67025, "o", " " ]
[ 42.72281, "o", "-" ]
[ 42.77463, "o", "i" ]
[ 42.82688, "o", " " ]
[ 42.87869, "o", "t" ]
[ 42.93063, "o", "e" ]
[ 42.98229, "o", "s" ]
[ 43.03438, "o", "t" ]
[ 43.08645, "o", "." ]
[ 43.13846, "o", "m" ]
[ 43.19051, "o", "p" ]
[ 43.24217, "o", "4" ]
[ 43.29435, "o", " " ]
[ 43.34672, "o", "-" ]
[ 43.39927, "o", "c" ]
[ 43.45160, "o", ":" ]
[ 43.50361, "o", "v" ]
[ 43.55590, "o", " " ]
[ 43.60764, "o", "l" ]
[ 43.65999, "o", "i" ]
[ 43.71192, "o", "b" ]
[ 43.76432, "o", "x" ]
[ 43.81626, "o", "2" ]
[ 43.86861, "o", "6" ]
[ 43.92075, "o", "4" ]
[ 43.97316, "o", " " ]
[ 44.02567, "o", "t" ]
[ 44.07738, "o", "e" ]
[ 44.12922, "o", "s" ]
[ 44.18102, "o", "t" ]
[ 44.23325, "o", "1" ]
[ 44.28532, "o", "." ]
[ 44.33786, "o", "m" ]
[ 44.38989, "o", "p" ]
[ 44.44179, "o", "4" ]
[ 45.99604, "o", "\r\n\u001b[?2004l\r" ]
[ 45.99853, "o", "ffmpeg version 6.0-static https://johnvansickle.com/ffmpeg/  Copyright (c) 2000-2023 the FFmpeg developers\r\n  built with gcc 8 (Debian 8.3.0-6)\r\n  configuration: --enable-gpl --enable-version3 --enable-static --disable-debug --disable-ffplay --disable-indev=sndio --disable-outdev=sndio --cc=gcc --enable-fontconfig --enable-frei0r --enable-gnutls --enable-gmp --enable-libgme --enable-gray --enable-libaom --enable-libfribidi --enable-libass --enable-libvmaf --enable-libfreetype --enable-libmp3lame --enable-libopencore-amrnb --enable-libopencore-amrwb --enable-libopenjpeg --enable-librubberband --enable-libsoxr --enable-libspeex --enable-libsrt --enable-libvorbis --enable-libopus --enable-libtheora --enable-libvidstab --enable-libvo-amrwbenc --enable-libvpx --enable-libwebp --enable-libx264 --enable-libx265 --enable-libxml2 --enable-libdav1d --enable-libxvid --enable-libzvbi --enable-libzimg\r\n  libavutil      58.  2.100 / 58.  2.100\r\n  libavcodec     60.  3.100 / 60.  3.100\r\n  libavformat    60.  3.100 / 60.  3.100\r\n  libavdevice    60.  1.100 / 60.  1.100\r\n  libavfilter     9.  3.100 /  9.  3.100\r\n  libswscale      7.  1.100 /  7.  1.100\r\n  libswresample   4. 10.100 /  4. 10.100\r\n  libpostproc    57.  1.100 / 57.  1.100\r\n" ]
[ 46.00278, "o", "Input #0, mov,mp4,m4a,3gp,3g2,mj2, from 'test.mp4':\r\n  Metadata:\r\n    major_brand     : isom\r\n    minor_version   : 512\r\n    compatible_brands: isomiso2avc1mp41\r\n    creation_time   : 1970-01-01T00:00:00.000000Z\r\n    title           : Sintel Trailer\r\n    artist          : Durian Open Movie Team\r\n    encoder         : Lavf52.62.0\r\n    copyright       : (c) copyright Blender Foundation | durian.blender.org\r\n    description     : Trailer for the Sintel open movie project\r\n  Duration: 00:00:52.21, start: " ]
[ 46.00279, "o", "0.000000, bitrate: 669 kb/s\r\n  Stream #0:0[0x1](und)" ]
[ 46.00283, "o", ": Video: h264 (High) (avc1 / 0x31637661), yuv420p(progressive), 854x480, 537 kb/s" ]
[ 46.00284, "o", ", 24 fps, 24 tbr, 24 tbn (default)\r\n    Metadata:\r\n      creation_time   : 1970-01-01T00:00:00.000000Z\r\n      handler_name    : VideoHandler\r\n      vendor_id       : [0][0][0][0]\r\n" ]
[ 46.00285, "o", "  Stream #0:1[0x2](und)" ]
[ 46.00292, "o", ": Audio: aac (LC) (mp4a / 0x6134706D), 48000 Hz, stereo, fltp, 126 kb/s (default)" ]
[ 46.00293, "o", "\r\n    Metadata:\r\n" ]
[ 46.00295, "o", "      creation_time   : " ]
[ 46.00296, "o", "1970-01-01T00:00:00.000000Z\r\n" ]
[ 46.00302, "o", "      handler_name    : SoundHandler" ]
[ 46.00305, "o", "\r\n      vendor_id       : [0][0][0][0]" ]
[ 46.00306, "o", "\r\n" ]
[ 46.00657, "o", "Stream mapping:\r\n  Stream #0:0 -> #0:0 (h264 (native) -> h264 (libx264))\r\n  Stream #0:1 -> #0:1 (aac (native) -> aac (native))\r\nPress [q] to stop, [?] for help\r\n" ]
[ 46.02833, "o", "\u001b[1;36m[libx264 @ 0x61c9a80] \u001b[0musing cpu capabilities: MMX2 SSE2Fast SSSE3 SSE4.2 AVX FMA3 BMI2 AVX2\r\n" ]
[ 46.03144, "o", "\u001b[1;36m[libx264 @ 0x61c9a80] \u001b[0mprofile High, level 3.0, 4:2:0, 8-bit\r\n\u001b[1;36m[libx264 @ 0x61c9a80] \u001b[0m264 - core 164 r3106 eaa68fa - H.264/MPEG-4 AVC codec - Copyleft 2003-2023 - http://www.videolan.org/x264.html - options: cabac=1 ref=3 deblock=1:0:0 analyse=0x3:0x113 me=hex subme=7 psy=1 psy_rd=1.00:0.00 mixed_ref=1 me_range=16 chroma_me=1 trellis=1 8x8dct=1 cqm=0 deadzone=21,11 fast_pskip=1 chroma_qp_offset=-2 threads=12 lookahead_threads=2 sliced_threads=0 nr=0 decimate=1 interlaced=0 bluray_compat=0 constrained_intra=0 bframes=3 b_pyramid=2 b_adapt=1 b_bias=0 direct=1 weightb=1 open_gop=0 weightp=2 keyint=250 keyint_min=24 scenecut=40 intra_refresh=0 rc_lookahead=40 rc=crf mbtree=1 crf=23.0 qcomp=0.60 qpmin=0 qpmax=69 qpstep=4 ip_ratio=1.40 aq=1:1.00\r\n" ]
[ 46.03145, "o", "Output #0, mp4, to 'test1.mp4':\r\n  Metadata:\r\n    major_brand     : isom\r\n    minor_version   : 512\r\n    compatible_brands: isomiso2avc1mp41" ]
[ 46.03154, "o", "\r\n    description     : Trailer for the Sintel open movie project\r\n    title           : Sintel Trailer\r\n    artist          : Durian Open Movie Team\r\n" ]
[ 46.03155, "o", "    copyright       : " ]
[ 46.03156, "o", "(c) copyright Blender Foundation | durian.blender.org" ]
[ 46.03165, "o", "\r\n    encoder         : Lavf60.3.100\r\n" ]
[ 46.03171, "o", "  Stream #0:0(und): Video: h264 (avc1 / 0x31637661), yuv420p(progressive), 854x480, q=2-31, " ]
[ 46.03172, "o", "24 fps, 12288 tbn (default)" ]
[ 46.03180, "o", "\r\n    Metadata:\r\n      creation_time   : 1970-01-01T00:00:00.000000Z\r\n      handler_name    : VideoHandler\r\n      vendor_id       : [0][0][0][0]\r\n      encoder         : Lavc60.3.100 libx264\r\n    Side data:\r\n      cpb: bitrate max/min/avg: 0/0/0 buffer size: 0 " ]
[ 46.03185, "o", "vbv_delay: N/A\r\n" ]
[ 46.03195, "o", "  Stream #0:1(und): Audio: aac (LC) (mp4a / 0x6134706D), 48000 Hz, stereo, fltp, 128 kb/s (default)\r\n    Metadata:\r\n      creation_time   : 1970-01-01T00:00:00.000000Z\r\n      handler_name    : SoundHandler\r\n      vendor_id       : [0][0][0][0]\r\n      encoder         : Lavc60.3.100 aac\r\n" ]
[ 46.03281, "o", "frame=    0 fps=0.0 q=0.0 size=       0kB time=00:00:00.27 bitrate=   1.4kbits/s speed=14.4x    \r" ]
[ 46.52916, "o", "frame=   55 fps=0.0 q=28.0 size=       0kB time=00:00:04.88 bitrate=   0.1kbits/s speed= 9.4x    \r" ]
[ 47.03010, "o", "frame=  140 fps=137 q=28.0 size=     256kB time=00:00:08.42 bitrate= 248.9kbits/s speed=8.25x    \r" ]
[ 47.52995, "o", "frame=  254 fps=167 q=28.0 size=     512kB time=00:00:13.18 bitrate= 318.2kbits/s speed=8.66x    \r" ]
[ 48.03122, "o", "frame=  372 fps=184 q=28.0 size=     768kB time=00:00:18.09 bitrate= 347.8kbits/s speed=8.94x    \r" ]
[ 48.53327, "o", "frame=  480 fps=190 q=28.0 size=    1280kB time=00:00:22.59 bitrate= 464.2kbits/s speed=8.95x    \r" ]
[ 49.03399, "o", "frame=  565 fps=187 q=28.0 size=    1536kB time=00:00:26.17 bitrate= 480.7kbits/s speed=8.65x    \r" ]
[ 49.53572, "o", "frame=  650 fps=184 q=28.0 size=    2048kB time=00:00:29.65 bitrate= 565.8kbits/s speed=8.41x    \r" ]
[ 50.04629, "o", "frame=  732 fps=181 q=28.0 size=    2560kB time=00:00:33.08 bitrate= 633.8kbits/s speed=8.19x    \r" ]
[ 50.55243, "o", "frame=  827 fps=182 q=28.0 size=    3072kB time=00:00:37.05 bitrate= 679.1kbits/s speed=8.16x    \r" ]
[ 51.05490, "o", "frame=  926 fps=183 q=28.0 size=    3328kB time=00:00:41.17 bitrate= 662.2kbits/s speed=8.16x    \r" ]
[ 51.55560, "o", "frame= 1069 fps=193 q=28.0 size=    3584kB time=00:00:47.12 bitrate= 623.0kbits/s speed=8.49x    \r" ]
[ 51.81552, "o", "frame= 1253 fps=216 q=-1.0 Lsize=    3870kB time=00:00:52.08 bitrate= 608.6kbits/s speed=8.97x    \r\nvideo:3017kB audio:817kB subtitle:0kB other streams:0kB global headers:0kB muxing overhead: 0.943318%\r\n" ]
[ 51.81675, "o", "\u001b[1;36m[libx264 @ 0x61c9a80] \u001b[0mframe I:21    Avg QP:15.40  size:  9532\r\n\u001b[1;36m[libx264 @ 0x61c9a80] \u001b[0m" ]
[ 51.81678, "o", "frame P:414   Avg QP:20.00  size:  4458\r\n" ]
[ 51.81679, "o", "\u001b[1;36m[libx264 @ 0x61c9a80] \u001b[0mframe B:818   Avg QP:20.34  size:  1275\r\n\u001b[1;36m[libx264 @ 0x61c9a80] \u001b[0mconsecutive B-frames:  7.6% 11.0% 15.3% 66.1%\r\n\u001b[1;36m[libx264 @ 0x61c9a80] \u001b[0mmb I  I16..4: 42.3% 50.1%  7.6%\r\n\u001b[1;36m[libx264 @ 0x61c9a80] \u001b[0mmb P  I16..4:  7.6% 13.7%  1.2%  P16..4: 22.2%  5.7%  2.2%  0.0%  0.0%    skip:47.4%\r\n\u001b[1;36m[libx264 @ 0x61c9a80] \u001b[0mmb B  I16..4:  0.9%  1.4%  0.1%  B16..8: 16.7%  1.9%  0.3%  direct: 2.2%  skip:76.5%  L0:42.3% L1:49.3% BI: 8.5%\r\n\u001b[1;36m[libx264 @ 0x61c9a80] \u001b[0m8x8 transform intra:59.0% inter:82.2%\r\n\u001b[1;36m[libx264 @ 0x61c9a80] \u001b[0mcoded y,uvDC,uvAC intra: 28.2% 36.9% 9.2% inter: 5.9% 9.0% 0.2%\r\n" ]
[ 51.81685, "o", "\u001b[1;36m[libx264 @ 0x61c9a80] \u001b[0mi16 v,h,dc,p: 29% 39%  6% 26%\r\n\u001b[1;36m[libx264 @ 0x61c9a80] \u001b[0mi8 v,h,dc,ddl,ddr,vr,hd,vl,hu: 21% 24% 25%  4%  5%  5%  6%  4%  5%\r\n\u001b[1;36m[libx264 @ 0x61c9a80] \u001b[0mi4 v,h,dc,ddl,ddr,vr,hd,vl,hu: 17% 28% 19%  6%  8%  6%  7%  5%  4%\r\n\u001b[1;36m[libx264 @ 0x61c9a80] \u001b[0m" ]
[ 51.81687, "o", "i8c dc,h,v,p: 60% 24% 11%  4%\r\n" ]
[ 51.81690, "o", "\u001b[1;36m[libx264 @ 0x61c9a80] \u001b[0mWeighted P-Frames: Y:39.1% UV:26.6%\r\n" ]
[ 51.81698, "o", "\u001b[1;36m[libx264 @ 0x61c9a80] \u001b[0mref P L0: 73.6% 11.9% 10.6%  3.6%  0.3%\r\n\u001b[1;36m[libx264 @ 0x61c9a80] \u001b[0mref B L0: 90.6%  7.7%  1.7%\r\n\u001b[1;36m[libx264 @ 0x61c9a80] \u001b[0mref B L1: 98.1%  1.9%\r\n\u001b[1;36m[libx264 @ 0x61c9a80] \u001b[0mkb/s:473.24\r\n" ]
[ 51.82154, "o", "\u001b[1;36m[aac @ 0x61c8500] \u001b[0mQavg: 658.517\r\n" ]
[ 51.82507, "o", "\u001b[?2004h\r\n" ]
[ 51.82508, "o", "\u001b[19491001\u001b[1;35m> \u001b[20210325\u001b[0m" ]
[ 52.50088, "o", "# S" ]
[ 52.55315, "o", "e" ]
[ 52.60489, "o", "t" ]
[ 52.65690, "o", " " ]
[ 52.70933, "o", "t" ]
[ 52.76202, "o", "h" ]
[ 52.81384, "o", "e" ]
[ 52.86620, "o", " " ]
[ 52.91823, "o", "v" ]
[ 52.96999, "o", "i" ]
[ 53.02154, "o", "d" ]
[ 53.07369, "o", "e" ]
[ 53.12554, "o", "o" ]
[ 53.17734, "o", " " ]
[ 53.22965, "o", "b" ]
[ 53.28219, "o", "i" ]
[ 53.33429, "o", "t" ]
[ 53.38603, "o", "r" ]
[ 53.43853, "o", "a" ]
[ 53.49086, "o", "t" ]
[ 53.54302, "o", "e" ]
[ 53.59483, "o", " " ]
[ 53.64700, "o", "t" ]
[ 53.69928, "o", "o" ]
[ 53.75131, "o", " " ]
[ 53.80362, "o", "6" ]
[ 53.85546, "o", "4" ]
[ 53.90786, "o", " " ]
[ 53.95961, "o", "k" ]
[ 54.01182, "o", "b" ]
[ 54.06409, "o", "i" ]
[ 54.11595, "o", "t" ]
[ 54.16794, "o", "/" ]
[ 54.21959, "o", "s" ]
[ 54.27192, "o", "\r\n\u001b[?2004l\r\u001b[?2004h" ]
[ 54.27193, "o", "\r\n\u001b[19491001\u001b[1;35m> \u001b[20210325\u001b[0m" ]
[ 55.77602, "o", "x" ]
[ 55.82806, "o", " " ]
[ 55.88012, "o", "f" ]
[ 55.93258, "o", "f" ]
[ 55.98470, "o", "m" ]
[ 56.03678, "o", "p" ]
[ 56.08917, "o", "e" ]
[ 56.14112, "o", "g" ]
[ 56.19343, "o", " " ]
[ 56.24547, "o", "-" ]
[ 56.29797, "o", "i" ]
[ 56.34973, "o", " " ]
[ 56.40167, "o", "t" ]
[ 56.45409, "o", "e" ]
[ 56.50659, "o", "s" ]
[ 56.55893, "o", "t" ]
[ 56.61131, "o", "." ]
[ 56.66367, "o", "m" ]
[ 56.71575, "o", "p" ]
[ 56.76791, "o", "4" ]
[ 56.81954, "o", " " ]
[ 56.87187, "o", "-" ]
[ 56.92392, "o", "b" ]
[ 56.97644, "o", ":" ]
[ 57.02888, "o", "v" ]
[ 57.08120, "o", " " ]
[ 57.13366, "o", "6" ]
[ 57.18536, "o", "4" ]
[ 57.23684, "o", "k" ]
[ 57.28869, "o", " " ]
[ 57.34083, "o", "t" ]
[ 57.39313, "o", "e" ]
[ 57.44534, "o", "s" ]
[ 57.49788, "o", "t" ]
[ 57.54966, "o", "2" ]
[ 57.60155, "o", "." ]
[ 57.65319, "o", "m" ]
[ 57.70556, "o", "p" ]
[ 57.75747, "o", "4" ]
[ 59.31186, "o", "\r\n\u001b[?2004l\r" ]
[ 59.32217, "o", "ffmpeg version 6.0-static https://johnvansickle.com/ffmpeg/  Copyright (c) 2000-2023 the FFmpeg developers\r\n  built with gcc 8 (Debian 8.3.0-6)\r\n  configuration: --enable-gpl --enable-version3 --enable-static --disable-debug --disable-ffplay --disable-indev=sndio --disable-outdev=sndio --cc=gcc --enable-fontconfig --enable-frei0r --enable-gnutls --enable-gmp --enable-libgme --enable-gray --enable-libaom --enable-libfribidi --enable-libass --enable-libvmaf --enable-libfreetype --enable-libmp3lame --enable-libopencore-amrnb --enable-libopencore-amrwb --enable-libopenjpeg --enable-librubberband --enable-libsoxr --enable-libspeex --enable-libsrt --enable-libvorbis --enable-libopus --enable-libtheora --enable-libvidstab --enable-libvo-amrwbenc --enable-libvpx --enable-libwebp --enable-libx264 --enable-libx265 --enable-libxml2 --enable-libdav1d --enable-libxvid --enable-libzvbi --enable-libzimg\r\n  libavutil      58.  2.100 / 58.  2.100\r\n  libavcodec     60.  3.100 / 60.  3.100\r\n  libavformat    60.  3.100 / 60.  3.100\r\n  libavdevice    60.  1.100 / 60.  1.100\r\n  libavfilter     9.  3.100 /  9.  3.100\r\n  libswscale      7.  1.100 /  7.  1.100\r\n  libswresample   4. 10.100 /  4. 10.100\r\n  libpostproc    57.  1.100 / 57.  1.100\r\n" ]
[ 59.32223, "o", "Input #0, mov,mp4,m4a,3gp,3g2,mj2, from 'test.mp4':\r\n  Metadata:\r\n    major_brand     : isom\r\n    minor_version   : 512\r\n    compatible_brands: isomiso2avc1mp41\r\n    creation_time   : 1970-01-01T00:00:00.000000Z\r\n    title           : Sintel Trailer\r\n    artist          : Durian Open Movie Team\r\n    encoder         : Lavf52.62.0\r\n    copyright       : (c) copyright Blender Foundation | durian.blender.org\r\n    description     : Trailer for the Sintel open movie project\r\n  Duration: 00:00:52.21, start: 0.000000, bitrate: 669 kb/s\r\n  Stream #0:0[0x1](und): Video: h264 (High) (avc1 / 0x31637661), yuv420p(progressive), 854x480, 537 kb/s, 24 fps, 24 tbr, 24 tbn (default)\r\n    Metadata:\r\n      creation_time   : 1970-01-01T00:00:00.000000Z\r\n      handler_name    : VideoHandler\r\n      vendor_id       : [0][0][0][0]\r\n  Stream #0:1[0x2](und): Audio: aac (LC) (mp4a / 0x6134706D), 48000 Hz, stereo, fltp, 126 kb/s (default)\r\n    Metadata:\r\n      creation_time   : 1970-01-01T00:00:00.000000Z\r\n      handler_name    : SoundHandler\r\n      vendor_id       : [0][0][0][0]\r\n" ]
[ 59.32260, "o", "Stream mapping:\r\n  Stream #0:0 -> #0:0 (h264 (native) -> h264 (libx264))\r\n  Stream #0:1 -> #0:1 (aac (native) -> aac (native))\r\nPress [q] to stop, [?] for help\r\n" ]
[ 59.34415, "o", "\u001b[1;36m[libx264 @ 0x61b8a80] \u001b[0musing cpu capabilities: MMX2 SSE2Fast SSSE3 SSE4.2 AVX FMA3 BMI2 AVX2\r\n" ]
[ 59.34686, "o", "\u001b[1;36m[libx264 @ 0x61b8a80] \u001b[0mprofile High, level 3.0, 4:2:0, 8-bit\r\n" ]
[ 59.34741, "o", "\u001b[1;36m[libx264 @ 0x61b8a80] \u001b[0m264 - core 164 r3106 eaa68fa - H.264/MPEG-4 AVC codec - Copyleft 2003-2023 - http://www.videolan.org/x264.html - options: cabac=1 ref=3 deblock=1:0:0 analyse=0x3:0x113 me=hex subme=7 psy=1 psy_rd=1.00:0.00 mixed_ref=1 me_range=16 chroma_me=1 trellis=1 8x8dct=1 cqm=0 deadzone=21,11 fast_pskip=1 chroma_qp_offset=-2 threads=12 lookahead_threads=2 sliced_threads=0 nr=0 decimate=1 interlaced=0 bluray_compat=0 constrained_intra=0 bframes=3 b_pyramid=2 b_adapt=1 b_bias=0 direct=1 weightb=1 open_gop=0 weightp=2 keyint=250 keyint_min=24 scenecut=40 intra_refresh=0 rc_lookahead=40 rc=abr mbtree=1 bitrate=64 ratetol=1.0 qcomp=0.60 qpmin=0 qpmax=69 qpstep=4 ip_ratio=1.40 aq=1:1.00\r\n" ]
[ 59.34754, "o", "Output #0, mp4, to 'test2.mp4':\r\n  Metadata:\r\n    major_brand     : isom\r\n    minor_version   : 512\r\n    compatible_brands: isomiso2avc1mp41\r\n    description     : Trailer for the Sintel open movie project\r\n    title           : Sintel Trailer\r\n    artist          : Durian Open Movie Team\r\n    copyright       : (c) copyright Blender Foundation | durian.blender.org\r\n    encoder         : Lavf60.3.100\r\n" ]
[ 59.34755, "o", "  Stream #0:0(und): Video: h264 (avc1 / 0x31637661), yuv420p(progressive), 854x480, q=2-31, 64 kb/s, " ]
[ 59.34764, "o", "24 fps, 12288 tbn (default)\r\n    Metadata:\r\n      creation_time   : 1970-01-01T00:00:00.000000Z\r\n      handler_name    : VideoHandler\r\n      vendor_id       : [0][0][0][0]\r\n      encoder         : Lavc60.3.100 libx264\r\n    Side data:\r\n      cpb: bitrate max/min/avg: 0/0/64000 buffer size: 0 vbv_delay: N/A\r\n" ]
[ 59.34778, "o", "  Stream #0:1(und): Audio: aac (LC) (mp4a / 0x6134706D), 48000 Hz, stereo, fltp, 128 kb/s (default)\r\n    Metadata:\r\n      creation_time   : 1970-01-01T00:00:00.000000Z\r\n      handler_name    : SoundHandler\r\n      vendor_id       : [0][0][0][0]\r\n      encoder         : Lavc60.3.100 aac\r\n" ]
[ 59.34880, "o", "frame=    0 fps=0.0 q=0.0 size=       0kB time=00:00:00.27 bitrate=   1.4kbits/s speed=14.1x    \r" ]
[ 59.84448, "o", "frame=   68 fps=0.0 q=43.0 size=       0kB time=00:00:05.41 bitrate=   0.1kbits/s speed=10.4x    \r" ]
[ 60.34697, "o", "frame=  206 fps=201 q=47.0 size=       0kB time=00:00:11.17 bitrate=   0.0kbits/s speed=10.9x    \r" ]
[ 60.84999, "o", "frame=  378 fps=248 q=43.0 size=     256kB time=00:00:18.34 bitrate= 114.3kbits/s speed=  12x    \r" ]
[ 61.35078, "o", "frame=  526 fps=259 q=45.0 size=     512kB time=00:00:24.51 bitrate= 171.1kbits/s speed=12.1x    \r" ]
[ 61.85389, "o", "frame=  642 fps=254 q=52.0 size=     512kB time=00:00:29.35 bitrate= 142.9kbits/s speed=11.6x    \r" ]
[ 62.35143, "o", "frame=  772 fps=255 q=55.0 size=     768kB time=00:00:34.77 bitrate= 180.9kbits/s speed=11.5x    \r" ]
[ 62.85183, "o", "frame=  932 fps=264 q=54.0 size=     768kB time=00:00:41.45 bitrate= 151.8kbits/s speed=11.7x    \r" ]
[ 63.35218, "o", "frame= 1162 fps=288 q=50.0 size=    1024kB time=00:00:51.02 bitrate= 164.4kbits/s speed=12.7x    \r" ]
[ 63.43920, "o", "frame= 1253 fps=304 q=-1.0 Lsize=    1245kB time=00:00:52.08 bitrate= 195.9kbits/s speed=12.7x    \r\nvideo:393kB audio:817kB subtitle:0kB other streams:0kB global headers:0kB muxing overhead: 2.990225%\r\n" ]
[ 63.44022, "o", "\u001b[1;36m[libx264 @ 0x61b8a80] \u001b[0mframe I:21    Avg QP:34.41  size:  1721\r\n\u001b[1;36m[libx264 @ 0x61b8a80] \u001b[0mframe P:414   Avg QP:38.98  size:   583\r\n\u001b[1;36m[libx264 @ 0x61b8a80] \u001b[0mframe B:818   Avg QP:37.58  size:   151\r\n" ]
[ 63.44023, "o", "\u001b[1;36m[libx264 @ 0x61b8a80] \u001b[0mconsecutive B-frames:  7.6% 11.0% 15.3% 66.1%\r\n\u001b[1;36m[libx264 @ 0x61b8a80] \u001b[0m" ]
[ 63.44027, "o", "mb I  I16..4: 42.1% 56.8%  1.1%\r\n" ]
[ 63.44028, "o", "\u001b[1;36m[libx264 @ 0x61b8a80] \u001b[0mmb P  I16..4:  6.0%  9.0%  0.0%  P16..4:  7.4%  0.3%  0.1%  0.0%  0.0%    skip:77.2%\r\n" ]
[ 63.44032, "o", "\u001b[1;36m[libx264 @ 0x61b8a80] \u001b[0mmb B  I16..4:  0.2%  0.1%  0.0%  B16..8:  6.9%  0.1%  0.0%  direct: 0.0%  skip:92.7%  L0:35.1% L1:64.6% BI: 0.3%\r\n\u001b[1;36m[libx264 @ 0x61b8a80] \u001b[0mfinal ratefactor: 43.44\r\n\u001b[1;36m[libx264 @ 0x61b8a80] \u001b[0m8x8 transform intra:58.8% inter:98.4%\r\n\u001b[1;36m[libx264 @ 0x61b8a80] \u001b[0mcoded y,uvDC,uvAC intra: 3.6% 15.7% 0.2% inter: 0.2% 0.6% 0.0%\r\n\u001b[1;36m[libx264 @ 0x61b8a80] \u001b[0mi16 v,h,dc,p: 39% 42%  7% 12%\r\n" ]
[ 63.44033, "o", "\u001b[1;36m[libx264 @ 0x61b8a80] \u001b[0mi8 v,h,dc,ddl,ddr,vr,hd,vl,hu:  9%  9% 77%  1%  1%  1%  1%  1%  1%\r\n" ]
[ 63.44034, "o", "\u001b[1;36m[libx264 @ 0x61b8a80] \u001b[0m" ]
[ 63.44043, "o", "i4 v,h,dc,ddl,ddr,vr,hd,vl,hu: 33% 21% 23%  3%  5%  5%  4%  3%  4%\r\n\u001b[1;36m[libx264 @ 0x61b8a80] \u001b[0mi8c dc,h,v,p: 93%  5%  2%  0%\r\n\u001b[1;36m[libx264 @ 0x61b8a80] \u001b[0mWeighted P-Frames: Y:39.1% UV:26.6%\r\n\u001b[1;36m[libx264 @ 0x61b8a80] \u001b[0mref P L0: 69.6%  4.6% 17.8%  6.3%  1.7%\r\n\u001b[1;36m[libx264 @ 0x61b8a80] \u001b[0mref B L0: 83.2% 13.4%  3.4%\r\n\u001b[1;36m[libx264 @ 0x61b8a80] \u001b[0mref B L1: 97.1%  2.9%\r\n\u001b[1;36m[libx264 @ 0x61b8a80] \u001b[0mkb/s:61.48\r\n" ]
[ 63.44521, "o", "\u001b[1;36m[aac @ 0x61b7500] \u001b[0mQavg: 658.517\r\n" ]
[ 63.44944, "o", "\u001b[?2004h\r\n\u001b[19491001\u001b[1;35m> \u001b[20210325\u001b[0m" ]
[ 65.81610, "o", "# M" ]
[ 65.86829, "o", "o" ]
[ 65.92007, "o", "d" ]
[ 65.97237, "o", "i" ]
[ 66.02427, "o", "f" ]
[ 66.07683, "o", "y" ]
[ 66.12935, "o", " " ]
[ 66.18158, "o", "t" ]
[ 66.23425, "o", "h" ]
[ 66.28612, "o", "e" ]
[ 66.33805, "o", " " ]
[ 66.38960, "o", "v" ]
[ 66.44166, "o", "i" ]
[ 66.49438, "o", "d" ]
[ 66.54641, "o", "e" ]
[ 66.59887, "o", "o" ]
[ 66.65049, "o", " " ]
[ 66.70277, "o", "r" ]
[ 66.75517, "o", "e" ]
[ 66.80762, "o", "s" ]
[ 66.85932, "o", "o" ]
[ 66.91150, "o", "l" ]
[ 66.96349, "o", "u" ]
[ 67.01569, "o", "t" ]
[ 67.06777, "o", "i" ]
[ 67.11981, "o", "o" ]
[ 67.17169, "o", "n" ]
[ 67.22367, "o", "\r\n\u001b[?2004l\r" ]
[ 67.22369, "o", "\u001b[?2004h\r\n\u001b[19491001\u001b[1;35m> \u001b[20210325\u001b[0m" ]
[ 68.72689, "o", "x" ]
[ 68.77867, "o", " " ]
[ 68.83064, "o", "f" ]
[ 68.88274, "o", "f" ]
[ 68.93488, "o", "m" ]
[ 68.98680, "o", "p" ]
[ 69.03908, "o", "e" ]
[ 69.09073, "o", "g" ]
[ 69.14252, "o", " " ]
[ 69.19460, "o", "-" ]
[ 69.24725, "o", "i" ]
[ 69.29927, "o", " " ]
[ 69.35072, "o", "t" ]
[ 69.40288, "o", "e" ]
[ 69.45446, "o", "s" ]
[ 69.50669, "o", "t" ]
[ 69.55892, "o", "." ]
[ 69.61075, "o", "m" ]
[ 69.66315, "o", "p" ]
[ 69.71498, "o", "4" ]
[ 69.76667, "o", " " ]
[ 69.81832, "o", "-" ]
[ 69.87058, "o", "s" ]
[ 69.92298, "o", " " ]
[ 69.97556, "o", "4" ]
[ 70.02793, "o", "8" ]
[ 70.07976, "o", "0" ]
[ 70.13206, "o", "x" ]
[ 70.18376, "o", "2" ]
[ 70.23599, "o", "7" ]
[ 70.28765, "o", "0" ]
[ 70.33985, "o", " " ]
[ 70.39195, "o", "t" ]
[ 70.44382, "o", "e" ]
[ 70.49597, "o", "s" ]
[ 70.54815, "o", "t" ]
[ 70.60036, "o", "3" ]
[ 70.65199, "o", "." ]
[ 70.70423, "o", "m" ]
[ 70.75599, "o", "p" ]
[ 70.80823, "o", "4" ]
[ 72.36277, "o", "\r\n\u001b[?2004l\r" ]
[ 72.36533, "o", "ffmpeg version 6.0-static https://johnvansickle.com/ffmpeg/  Copyright (c) 2000-2023 the FFmpeg developers\r\n  built with gcc 8 (Debian 8.3.0-6)\r\n  configuration: --enable-gpl --enable-version3 --enable-static --disable-debug --disable-ffplay --disable-indev=sndio --disable-outdev=sndio --cc=gcc --enable-fontconfig --enable-frei0r --enable-gnutls --enable-gmp --enable-libgme --enable-gray --enable-libaom --enable-libfribidi --enable-libass --enable-libvmaf --enable-libfreetype --enable-libmp3lame --enable-libopencore-amrnb --enable-libopencore-amrwb --enable-libopenjpeg --enable-librubberband --enable-libsoxr --enable-libspeex --enable-libsrt --enable-libvorbis --enable-libopus --enable-libtheora --enable-libvidstab --enable-libvo-amrwbenc --enable-libvpx --enable-libwebp --enable-libx264 --enable-libx265 --enable-libxml2 --enable-libdav1d --enable-libxvid --enable-libzvbi --enable-libzimg\r\n  libavutil      58.  2.100 / 58.  2.100\r\n  libavcodec     60.  3.100 / 60.  3.100\r\n  libavformat    60.  3.100 / 60.  3.100\r\n  libavdevice    60.  1.100 / 60.  1.100\r\n  libavfilter     9.  3.100 /  9.  3.100\r\n  libswscale      7.  1.100 /  7.  1.100\r\n  libswresample   4. 10.100 /  4. 10.100\r\n  libpostproc    57.  1.100 / 57.  1.100\r\n" ]
[ 72.36955, "o", "Input #0, mov,mp4,m4a,3gp,3g2,mj2, from 'test.mp4':\r\n  Metadata:\r\n    major_brand     : isom\r\n    minor_version   : 512\r\n    compatible_brands: isomiso2avc1mp41\r\n    creation_time   : 1970-01-01T00:00:00.000000Z\r\n    title           : Sintel Trailer\r\n    artist          : Durian Open Movie Team\r\n    encoder         : Lavf52.62.0\r\n    copyright       : (c) copyright Blender Foundation | durian.blender.org\r\n    description     : Trailer for the Sintel open movie project\r\n  Duration: 00:00:52.21, start: 0.000000, bitrate: 669 kb/s\r\n" ]
[ 72.36957, "o", "  Stream #0:0[0x1](und): Video: h264 (High) (avc1 / 0x31637661), yuv420p(progressive), 854x480, 537 kb/s, 24 fps, 24 tbr, 24 tbn (default)\r\n    Metadata:\r\n      creation_time   : 1970-01-01T00:00:00.000000Z\r\n" ]
[ 72.36959, "o", "      handler_name    : VideoHandler\r\n      vendor_id       : " ]
[ 72.36960, "o", "[0][0][0][0]\r\n" ]
[ 72.36972, "o", "  Stream #0:1[0x2](und): Audio: aac (LC) (mp4a / 0x6134706D), 48000 Hz, stereo, fltp, 126 kb/s (default)\r\n    Metadata:\r\n      creation_time   : 1970-01-01T00:00:00.000000Z\r\n      handler_name    : SoundHandler\r\n      vendor_id       : [0][0][0][0]\r\n" ]
[ 72.37326, "o", "Stream mapping:\r\n  Stream #0:0 -> #0:0 (h264 (native) -> h264 (libx264))\r\n  Stream #0:1 -> #0:1 (aac (native) -> aac (native))\r\nPress [q] to stop, [?] for help\r\n" ]
[ 72.40053, "o", "\u001b[1;36m[libx264 @ 0x783ba80] \u001b[0musing cpu capabilities: MMX2 SSE2Fast SSSE3 SSE4.2 AVX FMA3 BMI2 AVX2\r\n" ]
[ 72.40162, "o", "\u001b[1;36m[libx264 @ 0x783ba80] \u001b[0mprofile High, level 2.1, 4:2:0, 8-bit\r\n\u001b[1;36m[libx264 @ 0x783ba80] \u001b[0m264 - core 164 r3106 eaa68fa - H.264/MPEG-4 AVC codec - Copyleft 2003-2023 - http://www.videolan.org/x264.html - options: cabac=1 ref=3 deblock=1:0:0 analyse=0x3:0x113 me=hex subme=7 psy=1 psy_rd=1.00:0.00 mixed_ref=1 me_range=16 chroma_me=1 trellis=1 8x8dct=1 cqm=0 deadzone=21,11 fast_pskip=1 chroma_qp_offset=-2 threads=8 lookahead_threads=1 sliced_threads=0 nr=0 decimate=1 interlaced=0 bluray_compat=0 constrained_intra=0 bframes=3 b_pyramid=2 b_adapt=1 b_bias=0 direct=1 weightb=1 open_gop=0 weightp=2 keyint=250 keyint_min=24 scenecut=40 intra_refresh=0 rc_lookahead=40 rc=crf mbtree=1 crf=23.0 qcomp=0.60 qpmin=0 qpmax=69 qpstep=4 ip_ratio=1.40 aq=1:1.00" ]
[ 72.40163, "o", "\r\n" ]
[ 72.40173, "o", "Output #0, mp4, to 'test3.mp4':\r\n  Metadata:\r\n    major_brand     : isom\r\n    minor_version   : 512\r\n    compatible_brands: isomiso2avc1mp41\r\n    description     : Trailer for the Sintel open movie project\r\n    title           : Sintel Trailer\r\n    artist          : Durian Open Movie Team\r\n    copyright       : (c) copyright Blender Foundation | durian.blender.org\r\n    encoder         : Lavf60.3.100\r\n" ]
[ 72.40192, "o", "  Stream #0:0(und): Video: h264 (avc1 / 0x31637661), yuv420p(tv, progressive), 480x270, q=2-31, 24 fps, 12288 tbn (default)\r\n    Metadata:\r\n      creation_time   : 1970-01-01T00:00:00.000000Z\r\n      handler_name    : VideoHandler\r\n      vendor_id       : [0][0][0][0]\r\n      encoder         : Lavc60.3.100 libx264\r\n    Side data:\r\n      cpb: bitrate max/min/avg: 0/0/0 buffer size: 0 vbv_delay: N/A\r\n  Stream #0:1(und): Audio: aac (LC) (mp4a / 0x6134706D), 48000 Hz, stereo, fltp, 128 kb/s (default)\r\n    Metadata:\r\n" ]
[ 72.40193, "o", "      creation_time   : 1970-01-01T00:00:00.000000Z\r\n" ]
[ 72.40198, "o", "      handler_name    : SoundHandler\r\n      vendor_id       : [0][0][0][0]\r\n      encoder         : " ]
[ 72.40199, "o", "Lavc60.3.100 aac\r\n" ]
[ 72.40259, "o", "frame=    0 fps=0.0 q=0.0 size=       0kB time=00:00:00.27 bitrate=   1.4kbits/s speed=14.9x    \r" ]
[ 72.89325, "o", "frame=   95 fps=0.0 q=28.0 size=       0kB time=00:00:06.40 bitrate=   0.1kbits/s speed=12.3x    \r" ]
[ 73.39347, "o", "frame=  297 fps=291 q=28.0 size=     256kB time=00:00:14.82 bitrate= 141.5kbits/s speed=14.5x    \r" ]
[ 73.89403, "o", "frame=  512 fps=337 q=28.0 size=     512kB time=00:00:23.76 bitrate= 176.5kbits/s speed=15.6x    \r" ]
[ 74.39742, "o", "frame=  689 fps=341 q=28.0 size=    1024kB time=00:00:31.14 bitrate= 269.3kbits/s speed=15.4x    \r" ]
[ 74.89636, "o", "frame=  865 fps=343 q=28.0 size=    1536kB time=00:00:38.48 bitrate= 327.0kbits/s speed=15.3x    \r" ]
[ 75.39506, "o", "frame= 1115 fps=369 q=28.0 size=    1792kB time=00:00:48.89 bitrate= 300.2kbits/s speed=16.2x    \r" ]
[ 75.53247, "o", "frame= 1253 fps=397 q=-1.0 Lsize=    2005kB time=00:00:52.08 bitrate= 315.3kbits/s speed=16.5x    \r\nvideo:1152kB audio:817kB subtitle:0kB other streams:0kB global headers:0kB muxing overhead: 1.827018%\r\n" ]
[ 75.53347, "o", "\u001b[1;36m[libx264 @ 0x783ba80] \u001b[0mframe I:18    Avg QP:14.57  size:  3711\r\n\u001b[1;36m[libx264 @ 0x783ba80] \u001b[0m" ]
[ 75.53348, "o", "frame P:434   Avg QP:19.55  size:  1568\r\n\u001b[1;36m[libx264 @ 0x783ba80] \u001b[0mframe B:801   Avg QP:20.59  size:   539\r\n" ]
[ 75.53356, "o", "\u001b[1;36m[libx264 @ 0x783ba80] \u001b[0mconsecutive B-frames: 10.6%  9.4%  9.1% 70.9%\r\n\u001b[1;36m[libx264 @ 0x783ba80] \u001b[0mmb I  I16..4: 48.1% 41.4% 10.4%\r\n\u001b[1;36m[libx264 @ 0x783ba80] \u001b[0mmb P  I16..4:  5.1%  7.9%  1.5%  P16..4: 20.8%  7.7%  3.2%  0.0%  0.0%    skip:53.7%\r\n\u001b[1;36m[libx264 @ 0x783ba80] \u001b[0mmb B  I16..4:  0.5%  0.9%  0.3%  B16..8: 18.7%  3.4%  0.6%  direct: 1.5%  skip:74.1%  L0:38.8% L1:50.4% BI:10.7%\r\n\u001b[1;36m[libx264 @ 0x783ba80] \u001b[0m8x8 transform intra:51.2% inter:74.3%\r\n\u001b[1;36m[libx264 @ 0x783ba80] \u001b[0mcoded y,uvDC,uvAC intra: 36.0% 38.1% 15.2% inter: 7.0% 7.7% 0.3%\r\n\u001b[1;36m[libx264 @ 0x783ba80] \u001b[0mi16 v,h,dc,p: 27% 47%  6% 20%\r\n\u001b[1;36m[libx264 @ 0x783ba80] \u001b[0mi8 v,h,dc,ddl,ddr,vr,hd,vl,hu: 15% 26% 24%  5%  6%  5%  7%  5%  6%\r\n\u001b[1;36m[libx264 @ 0x783ba80] \u001b[0mi4 v,h,dc,ddl,ddr,vr,hd,vl,hu: 17% 27% 17%  6%  8%  7%  8%  5%  5%\r\n\u001b[1;36m[libx264 @ 0x783ba80] \u001b[0mi8c dc,h,v,p: 61% 26%  9%  4%\r\n\u001b[1;36m[libx264 @ 0x783ba80] \u001b[0mWeighted P-Frames: Y:38.9% UV:24.9%\r\n\u001b[1;36m[libx264 @ 0x783ba80] \u001b[0mref P L0: 72.5% 12.1% 11.5%  3.4%  0.6%\r\n" ]
[ 75.53358, "o", "\u001b[1;36m[libx264 @ 0x783ba80] \u001b[0mref B L0: 90.7%  7.4%  1.9%\r\n" ]
[ 75.53359, "o", "\u001b[1;36m[libx264 @ 0x783ba80] \u001b[0mref B L1: 97.6%  2.4%\r\n\u001b[1;36m[libx264 @ 0x783ba80] \u001b[0mkb/s:180.66\r\n" ]
[ 75.53432, "o", "\u001b[1;36m[aac @ 0x783a500] \u001b[0mQavg: 658.517\r\n" ]
[ 75.53920, "o", "\u001b[?2004h\r\n" ]
[ 75.53921, "o", "\u001b[19491001\u001b[1;35m> \u001b[20210325\u001b[0m" ]
[ 80.42014, "o", "\u001b[?2004l\r\r\nexit\r\n" ]
